<mxfile host="app.diagrams.net" agent="Mozilla/5.0 (Windows NT 10.0; Win64; x64) AppleWebKit/537.36 (KHTML, like Gecko) Chrome/130.0.0.0 Safari/537.36 Edg/130.0.0.0" version="24.8.2">
  <diagram name="Страница — 1" id="0bzOn9no7OoszEofs_be">
    <mxGraphModel dx="1426" dy="783" grid="1" gridSize="10" guides="1" tooltips="1" connect="1" arrows="1" fold="1" page="1" pageScale="1" pageWidth="827" pageHeight="1169" math="0" shadow="0">
      <root>
        <mxCell id="0" />
        <mxCell id="1" parent="0" />
        <mxCell id="nId41DNhn5AquGRoh-L6-1" value="Родительский Класс&#xa;│&#xa;├── Домашние животные&#xa;│   ├── Собаки&#xa;│   ├── Кошки&#xa;│   └── Хомяки&#xa;│&#xa;└── Вьючные животные&#xa;    ├── Лошади&#xa;    ├── Верблюды&#xa;    └── Ослы" style="text;whiteSpace=wrap;html=1;" vertex="1" parent="1">
          <mxGeometry y="390" width="320" height="550" as="geometry" />
        </mxCell>
      </root>
    </mxGraphModel>
  </diagram>
</mxfile>
